<?xml version="1.0" encoding="utf-8"?>
<!-- Generator: Adobe Illustrator 16.0.0, SVG Export Plug-In . SVG Version: 6.00 Build 0)  -->
<!DOCTYPE svg PUBLIC "-//W3C//DTD SVG 1.1//EN" "http://www.w3.org/Graphics/SVG/1.1/DTD/svg11.dtd">
<svg version="1.1" id="Vrstva_1" xmlns="http://www.w3.org/2000/svg" xmlns:xlink="http://www.w3.org/1999/xlink" x="0px" y="0px"
	 width="570.762px" height="188.956px" viewBox="0 0 570.762 188.956" enable-background="new 0 0 570.762 188.956"
	 xml:space="preserve">
<g>
	<g>
		<g>
			<g>
				<g>
					<path fill="#B8A165" d="M566.083,49.543c0-1.304-0.931-2.18-2.317-2.18h-2.972v7.698h0.979v-3.339h1.666l1.712,3.339h1.138
						l-1.8-3.44C565.49,51.37,566.083,50.6,566.083,49.543z M561.773,50.839v-2.583h1.92c0.885,0,1.413,0.485,1.413,1.297
						c0,0.817-0.515,1.286-1.413,1.286H561.773z"/>
					<path fill="#B8A165" d="M563.129,43.582c-4.205,0-7.684,3.527-7.684,7.787c0,4.262,3.479,7.737,7.684,7.737
						c4.202,0,7.633-3.475,7.633-7.737C570.762,47.109,567.332,43.582,563.129,43.582z M563.129,58.226
						c-3.722,0-6.769-3.135-6.769-6.857c0-3.771,3.047-6.855,6.769-6.855c3.718,0,6.764,3.084,6.764,6.855
						C569.893,55.091,566.847,58.226,563.129,58.226z"/>
				</g>
			</g>
		</g>
	</g>
	<g>
		<g>
			<path fill="none" d="M278.993,162.11c-5.446,0-9.269,3.983-9.269,9.684c0,2.853,1.082,5.736,2.922,7.818
				c1.66,1.866,3.752,2.777,6.383,2.777c5.555,0,9.197-3.909,9.197-9.864C288.226,166.678,284.189,162.11,278.993,162.11z"/>
			<path fill="none" d="M535.954,176.583c0.327,0,1.014,0,1.803-0.037v-13.791l-7.718,13.5
				C531.664,176.475,533.539,176.583,535.954,176.583z"/>
			<path fill="none" d="M491.813,174.605c-0.871-0.478-2.212-0.987-3.658-1.427c-0.866-0.258-1.481-0.439-1.481-0.402h-0.021
				c-2.64,1.206-4.044,2.926-4.044,4.974c0,1.279,0.649,2.597,1.841,3.585c1.192,1.024,2.313,1.389,4.405,1.389
				c3.359,0,5.779-1.79,5.779-4.352C494.634,176.761,493.806,175.665,491.813,174.605z"/>
			<path fill="none" d="M486.292,168.644c0.794,0.402,1.874,0.842,3.033,1.206c0.576,0.182,1.01,0.33,1.01,0.33h0.029
				c2.13-1.245,3.327-2.744,3.327-4.244c0-2.45-2.355-4.206-5.61-4.206c-2.711,0-4.628,1.392-4.628,3.366
				C483.454,166.595,484.246,167.583,486.292,168.644z"/>
			<polygon fill="none" points="217.22,172.873 224.609,172.873 220.934,163.19 			"/>
			<path fill="#B8A165" d="M182.071,160.07h-1.154h-0.757l-0.724,0.036h-0.716h-1.882h-3.503c1.333,0.772,1.621,1.616,1.621,4.761
				v14.845c0,3.138-0.288,3.973-1.621,4.726h7.185c-1.514-0.97-1.91-1.919-1.91-4.324v-17.141c1.01-0.22,1.585-0.294,2.559-0.294
				c3.314,0,5.296,1.715,5.296,4.561c0,3.137-2.414,5.251-6.629,5.798c1.011,0.366,1.514,0.475,2.665,0.475
				c4.396,0,8.042-3.136,8.042-6.931C190.542,162.678,187.186,160.07,182.071,160.07z"/>
			<path fill="#B8A165" d="M203.216,160.064h-6.898c1.333,0.752,1.623,1.592,1.623,4.742v14.89c0,3.149-0.29,3.988-1.623,4.741
				h6.898c-1.332-0.716-1.62-1.556-1.62-4.741v-14.89C201.596,161.621,201.884,160.779,203.216,160.064z"/>
			<path fill="#B8A165" d="M231.099,179.463l-7.75-19.399h-5.771c0.829,0.394,1.117,0.787,1.117,1.444
				c0,0.402-0.144,0.95-0.432,1.682l-6.416,16.273c-1.298,3.331-1.658,3.879-3.391,4.974h6.708c-1.048-0.585-1.336-0.95-1.336-1.68
				c0-0.402,0.144-1.061,0.433-1.829l2.094-5.636h9.191l2.163,5.636c0.648,1.718,0.648,1.683,0.648,2.049
				c0,0.584-0.18,0.803-1.332,1.46h7.498C232.865,183.414,232.395,182.684,231.099,179.463z M217.22,172.873l3.714-9.683
				l3.675,9.683H217.22z"/>
			<path fill="#B8A165" d="M257.312,164.4v14.476L243.76,161.4c-0.397-0.512-0.723-1.015-0.867-1.336h-5.338
				c1.513,1.006,1.908,1.921,1.908,4.336v15.685c0,2.411-0.396,3.324-1.908,4.348h6.493c-1.517-0.987-1.917-1.937-1.917-4.348
				v-14.81l12.83,16.452c1.737,2.267,2.854,3.145,5.019,3.911V164.4c0-2.415,0.398-3.364,1.912-4.336h-6.494
				C256.913,161.036,257.312,161.985,257.312,164.4z"/>
			<path fill="#B8A165" d="M279.246,159.445c-7.647,0-13.656,5.628-13.656,12.75c0,7.27,5.793,12.861,13.296,12.861
				c7.467,0,13.477-5.736,13.477-12.786C292.362,164.891,286.784,159.445,279.246,159.445z M279.029,182.389
				c-2.631,0-4.723-0.911-6.383-2.777c-1.84-2.082-2.922-4.966-2.922-7.818c0-5.7,3.822-9.684,9.269-9.684
				c5.196,0,9.233,4.568,9.233,10.415C288.226,178.48,284.583,182.389,279.029,182.389z"/>
			<path fill="#B8A165" d="M311.27,173.267c-1.073-0.874-2.332-1.57-5.294-2.957c-4.44-2.081-5.416-2.957-5.416-4.782
				c0-2.081,1.95-3.47,4.84-3.47c2.093,0,4.186,0.878,5.727,2.451v-4.215c-1.898-0.586-3.672-0.843-5.694-0.843
				c-5.341,0-8.95,2.644-8.95,6.479c0,1.715,0.685,3.286,1.876,4.38c1.085,0.951,2.236,1.645,5.054,2.92
				c2.962,1.39,3.829,1.862,4.659,2.593c0.794,0.693,1.23,1.678,1.23,2.701c0,2.08-2.421,3.722-5.458,3.722
				c-2.959,0-5.63-0.982-8.048-2.956l1.08,4.637c2.312,0.802,4.189,1.13,6.502,1.13c5.632,0,9.864-3.32,9.864-7.737
				C313.242,175.714,312.564,174.29,311.27,173.267z"/>
			<path fill="#B8A165" d="M351.892,173.267c-1.078-0.874-2.335-1.57-5.296-2.957c-4.444-2.081-5.419-2.957-5.419-4.782
				c0-2.081,1.95-3.47,4.841-3.47c2.096,0,4.185,0.878,5.729,2.451v-4.215c-1.901-0.586-3.671-0.843-5.692-0.843
				c-5.348,0-8.953,2.644-8.953,6.479c0,1.715,0.686,3.286,1.877,4.38c1.082,0.951,2.236,1.645,5.054,2.92
				c2.964,1.39,3.828,1.862,4.657,2.593c0.795,0.693,1.229,1.678,1.229,2.701c0,2.08-2.418,3.722-5.453,3.722
				c-2.961,0-5.631-0.982-8.048-2.956l1.081,4.637c2.31,0.802,4.188,1.13,6.496,1.13c5.634,0,9.871-3.32,9.871-7.737
				C353.865,175.714,353.183,174.29,351.892,173.267z"/>
			<path fill="#B8A165" d="M366.96,160.064h-6.898c1.334,0.752,1.623,1.592,1.623,4.742v14.89c0,3.149-0.289,3.988-1.623,4.741
				h6.898c-1.334-0.716-1.623-1.556-1.623-4.741v-14.89C365.337,161.621,365.626,160.779,366.96,160.064z"/>
			<path fill="#B8A165" d="M393.247,164.4v14.476L379.693,161.4c-0.399-0.512-0.721-1.015-0.866-1.336h-5.341
				c1.517,1.006,1.911,1.921,1.911,4.336v15.685c0,2.411-0.395,3.324-1.911,4.348h6.495c-1.517-0.987-1.913-1.937-1.913-4.348
				v-14.81l12.827,16.452c1.735,2.267,2.854,3.145,5.019,3.911V164.4c0-2.415,0.397-3.364,1.911-4.336h-6.496
				C392.848,161.036,393.247,161.985,393.247,164.4z"/>
			<path fill="#B8A165" d="M405.658,171.609c0-5.261,3.641-9.021,8.691-9.021c2.274,0,4.219,0.585,6.671,2.083v-4.275
				c-2.559-0.622-4.795-0.95-6.743-0.95c-7.537,0-12.754,5.226-12.754,12.786c0,7.891,5.287,12.825,13.802,12.825
				c2.236,0,3.787-0.294,5.695-1.135l1.841-4.274c-3.316,1.789-5.444,2.409-8.152,2.409
				C409.696,182.056,405.658,177.417,405.658,171.609z"/>
			<path fill="#B8A165" d="M433.417,181.329v-8.793h3.249c1.657,0,2.344,0.256,2.921,1.024v-3.947
				c-0.471,0.223-0.685,0.259-1.264,0.259h-4.906v-6.933c1.045-0.183,2.059-0.257,3.646-0.257c2.523,0,3.424,0.294,4.616,1.469
				v-4.326c-0.472,0.204-0.683,0.239-1.37,0.239h-12.168c1.334,0.765,1.622,1.564,1.622,4.745v14.913c0,3.14-0.288,3.98-1.622,4.71
				h15.232l1.696-4.82c-2.021,1.568-3.896,2.115-7.181,2.115C436.376,181.727,435.078,181.618,433.417,181.329z"/>
			<path fill="#B8A165" d="M471.952,179.665v-21.351c-1.872,3.034-4.503,5.229-7.971,6.618h4.259v14.732
				c0,2.926-0.323,3.655-2.166,4.772h7.681C472.31,183.431,471.952,182.479,471.952,179.665z"/>
			<path fill="#B8A165" d="M492.576,171.093h0.03c3.063-1.607,4.467-3.363,4.467-5.486c0-3.657-3.491-6.162-8.558-6.162
				c-5.025,0-8.725,2.728-8.725,6.419c0,2.487,1.545,4.387,4.639,5.742c-3.837,1.645-5.533,3.655-5.533,6.546
				c0,4.023,4.074,6.904,9.704,6.904c5.817,0,9.831-2.918,9.831-7.125C498.431,174.826,497.167,173.326,492.576,171.093z
				 M483.454,165.096c0-1.975,1.917-3.366,4.628-3.366c3.255,0,5.61,1.756,5.61,4.206c0,1.5-1.197,2.999-3.327,4.244h-0.029
				c0,0-0.434-0.148-1.01-0.33c-1.159-0.364-2.239-0.804-3.033-1.206C484.246,167.583,483.454,166.595,483.454,165.096z
				 M488.855,182.723c-2.093,0-3.213-0.364-4.405-1.389c-1.191-0.988-1.841-2.306-1.841-3.585c0-2.048,1.404-3.768,4.044-4.974
				h0.021c0-0.037,0.615,0.145,1.481,0.402c1.446,0.439,2.787,0.949,3.658,1.427c1.993,1.06,2.821,2.156,2.821,3.767
				C494.634,180.933,492.214,182.723,488.855,182.723z"/>
			<path fill="#B8A165" d="M514.25,168.252c-1.231,0-1.991,0.183-3.255,0.768l-2.317,2.925c1.663-0.878,2.749-1.169,4.125-1.169
				c3.543,0,5.789,2.372,5.789,6.167c0,3.284-2.174,5.548-5.283,5.548c-3.727,0-6.367-3.249-6.367-7.845
				c0-3.579,1.41-6.724,4.054-9.167c2.206-2.009,4.701-3.36,7.015-3.762l1.759-2.318c-9.827,1.224-16.633,7.503-16.633,15.282
				c0,5.948,4.167,10.367,9.773,10.367c5.249,0,9.156-3.837,9.156-8.873C522.065,171.506,518.875,168.252,514.25,168.252z"/>
			<path fill="#B8A165" d="M541.233,160.064h-4.846l-11.36,19.326h12.729v1.945c0,1.837-0.359,2.491-1.764,3.102h6.864
				c-1.12-0.678-1.624-1.815-1.624-3.576v-1.471h2.889l1.767-4.453c-1.444,1.096-2.488,1.464-4.655,1.608V160.064z M537.756,176.545
				c-0.789,0.037-1.476,0.037-1.803,0.037c-2.415,0-4.29-0.107-5.915-0.328l7.718-13.5V176.545z"/>
		</g>
		<g>
			<g>
				<path fill="#B8A165" d="M199.853,98.343c10.766,0,19.445-8.864,19.445-19.776c0-10.911-8.68-19.708-19.445-19.708h-27.047
					c0,0,0.802,0.997,1.48,2.593s0.604,2.384,0.604,2.384l0.135,4.023v58.508l-0.135,3.957c0,0-0.002,1.001-0.604,2.387
					c-0.533,1.228-1.48,2.659-1.48,2.659h12.111c0,0-0.563-0.704-1.482-2.659c-0.63-1.34-0.604-2.387-0.604-2.387l-0.202-3.957
					V97.865c0-0.41,0.401-0.68,0.806-0.68C183.435,97.185,189.136,98.364,199.853,98.343z M183.236,91.251
					c-0.404-0.066-0.606-0.341-0.606-0.682V66.496c0-0.338,0.202-0.613,0.74-0.682c0,0,7.077-1.213,14.666-1.227
					c7.604,0,13.726,6.273,13.726,13.98c0,7.705-6.119,13.88-13.726,13.911C190.43,92.508,183.236,91.251,183.236,91.251z"/>
				<path fill="#B8A165" d="M360.975,130.326l-0.203-3.957v-27.48c0-0.409,0.405-0.75,0.812-0.682
					c0.288,0.052,0.635,0.042,1.914,0.247c3.552,0.569,6.9,2.277,9.522,4.664l30.278,28.025c2.957,2.661,5.418,3.916,9.391,3.916
					c1.345,0,2.759-0.205,4.035-0.547v-4.499c-4.307-0.479-6.967-2.142-10.131-5.279l-27.451-25.299
					c-0.404-0.409-0.134-1.09,0.473-1.159c10.025-1.023,17.696-9.547,17.696-19.708c0-10.843-8.681-19.64-19.313-19.774h-27.047
					c0,0,0.822,0.878,1.479,2.66c0.623,1.662,0.606,2.384,0.606,2.384l0.203,4.023v58.508l-0.203,3.957c0,0,0.012,0.823-0.606,2.387
					c-0.62,1.561-1.479,2.659-1.479,2.659h12.176c0,0-0.981-1.147-1.544-2.659C361.021,131.199,360.975,130.326,360.975,130.326z
					 M361.382,91.251c-0.339-0.068-0.542-0.341-0.542-0.682V66.496c0-0.338,0.203-0.613,0.674-0.682
					c7.226-1.257,14.667-1.227,14.667-1.227c7.604,0,13.727,6.273,13.727,13.98c0,7.705-6.122,13.911-13.727,13.911
					C376.181,92.478,368.802,92.755,361.382,91.251z"/>
				<path fill="#B8A165" d="M232.255,58.793h39.698l2.354,7.636c-5.314-1.161-10.697-1.772-16.148-1.842h-15.342
					c-0.403,0-0.671,0.274-0.738,0.681v28.234c0.067,0.408,0.335,0.748,0.738,0.748h11.64c5.454-0.136,10.834-0.748,16.083-1.839
					v9.409c-5.249-1.09-10.629-1.704-16.083-1.842h-11.64c-0.403,0-0.671,0.343-0.738,0.752v28.231
					c0.067,0.342,0.335,0.614,0.738,0.614h15.342c5.451-0.068,10.834-0.682,16.082-1.773l-2.287,7.569h-39.698
					c0,0,0.866-1.05,1.48-2.659s0.605-2.387,0.605-2.387l0.201-3.957V67.86l-0.201-4.023c0,0-0.002-0.81-0.605-2.384
					C233.132,59.879,232.255,58.793,232.255,58.793z"/>
				<path fill="#B8A165" d="M315.984,130.46l-0.136-3.955v-61.1c0-0.408,0.272-0.682,0.674-0.682h11.907
					c5.453,0,8.661,0.682,13.912,1.843l-2.357-7.707h-24.136h-7.604h-24.199l-2.222,7.707c5.248-1.161,8.525-1.843,13.841-1.843
					h11.909c0.403,0,0.671,0.274,0.671,0.682v61.1l-0.199,3.955c0,0,0.044,0.702-0.579,2.32c-0.623,1.617-1.507,2.727-1.507,2.727
					h12.177c0,0-0.768-1.088-1.477-2.727C316.067,131.501,315.984,130.46,315.984,130.46z"/>
				<path fill="#B8A165" d="M512.959,130.326l-0.132-3.957V100.73c0-0.409,0.335-0.752,0.671-0.752h11.64
					c5.452,0.138,10.9,0.752,16.219,1.842l-0.137-9.409c-5.182,1.091-10.63,1.704-16.082,1.839h-11.64
					c-0.336,0-0.671-0.34-0.671-0.748V65.269c0-0.407,0.335-0.681,0.671-0.681h15.407c5.452,0.069,10.834,0.681,16.083,1.842
					l-2.355-7.636h-39.696c0,0,0.727,0.889,1.477,2.66s0.743,2.384,0.743,2.384l0.137,4.023v58.508l-0.137,3.957
					c0,0-0.051,0.814-0.743,2.387c-0.692,1.57-1.477,2.659-1.477,2.659h12.178c0,0-0.683-0.903-1.411-2.659
					C512.976,130.955,512.959,130.326,512.959,130.326z"/>
				<path fill="#B8A165" d="M493.054,97.188c0-21.951-17.618-39.737-39.211-39.737c-21.517,0-39.136,17.786-39.136,39.737
					c0,21.74,17.619,39.527,39.136,39.527C475.436,136.714,493.054,118.927,493.054,97.188z M453.708,130.935
					c-17.318,0-31.536-15.195-31.536-33.748c0-18.622,14.218-33.819,31.536-33.819c17.313,0,31.533,15.197,31.533,33.819
					C485.242,115.74,471.022,130.935,453.708,130.935z"/>
			</g>
		</g>
		<g>
			<g>
				<polygon fill-rule="evenodd" clip-rule="evenodd" fill="#FFFFFF" points="63.208,104.282 61.077,106.949 74.813,118.224 
					73.853,119.423 81.486,125.687 80.529,126.884 72.897,120.623 71.938,121.82 58.203,110.546 57.03,112.015 70.763,123.291 
					69.806,124.491 77.437,130.755 84.577,121.82 				"/>
				<polygon fill-rule="evenodd" clip-rule="evenodd" fill="#FFFFFF" points="76.48,131.953 68.849,125.688 67.89,126.888 
					54.154,115.615 52.98,117.083 66.716,128.355 65.759,129.555 73.391,135.818 72.43,137.019 64.8,130.755 63.841,131.953 
					50.106,120.681 51.458,118.988 47.974,123.349 69.342,140.886 76.853,131.486 				"/>
				<polygon fill-rule="evenodd" clip-rule="evenodd" fill="#FFFFFF" points="53.15,161.151 57.037,156.287 56.24,157.284 
					34.873,139.746 32.74,142.416 46.478,153.69 45.519,154.888 				"/>
				<polygon fill-rule="evenodd" clip-rule="evenodd" fill="#FFFFFF" points="68.382,142.085 47.015,124.548 44.886,127.213 
					58.621,138.49 57.664,139.689 65.292,145.95 64.335,147.15 56.704,140.886 55.748,142.085 42.011,130.812 40.835,132.284 
					54.574,143.554 53.616,144.753 61.246,151.017 60.289,152.216 52.656,145.954 51.702,147.153 37.962,135.878 35.83,138.547 
					57.199,156.084 68.75,141.627 				"/>
				<path fill-rule="evenodd" clip-rule="evenodd" fill="#FFFFFF" d="M115.862,63.934h-4.991l4.42,3.627l-0.957,1.199l4.323,3.552
					c-0.031,0.081-0.054,0.167-0.083,0.249c0.563-1.495,1.352-2.879,2.332-4.099l0.185-0.234L115.862,63.934z"/>
				<polygon fill-rule="evenodd" clip-rule="evenodd" fill="#FFFFFF" points="113.832,85.205 112.91,86.355 91.543,68.818 
					89.413,71.484 103.147,82.759 102.191,83.959 109.819,90.221 108.864,91.42 101.231,85.159 100.275,86.356 86.539,75.083 
					85.365,76.551 99.099,87.825 98.143,89.023 105.773,95.288 104.816,96.487 97.184,90.223 96.228,91.422 82.492,80.147 
					81.317,81.618 95.053,92.892 94.093,94.091 101.726,100.355 100.767,101.551 93.138,95.29 92.178,96.488 78.444,85.216 
					80.253,82.948 76.31,87.884 97.678,105.422 96.719,106.619 75.352,89.083 73.22,91.75 86.956,103.025 85.996,104.225 
					93.629,110.486 92.671,111.687 85.039,105.424 84.083,106.622 70.347,95.347 70.467,95.196 68.941,97.107 69.171,96.818 
					82.907,108.09 81.95,109.291 89.582,115.555 88.624,116.751 80.994,110.49 80.034,111.689 66.298,100.414 64.167,103.082 
					85.534,120.62 84.65,121.728 				"/>
				<path fill-rule="evenodd" clip-rule="evenodd" fill="#FFFFFF" d="M14.987,167.039c-0.04-0.097-0.08-0.194-0.118-0.293
					C14.908,166.844,14.948,166.942,14.987,167.039z"/>
				<polygon fill-rule="evenodd" clip-rule="evenodd" fill="#FFFFFF" points="109.328,75.025 108.369,76.225 94.632,64.952 
					92.502,67.618 113.872,85.155 117.6,80.488 116.959,81.289 				"/>
				<path fill-rule="evenodd" clip-rule="evenodd" fill="#FFFFFF" d="M118.134,73.867l-4.759-3.908l-0.956,1.2l-8.806-7.226h-2.962
					l10.593,8.691l-0.96,1.201l7.315,6.001v-1.923c0-0.012,0-0.024,0-0.04c0-1.528,0.241-3,0.666-4.391
					C118.226,73.606,118.172,73.732,118.134,73.867z"/>
				<polygon fill-rule="evenodd" clip-rule="evenodd" fill="#FFFFFF" points="44.56,156.084 43.603,157.284 29.867,146.011 
					26.727,149.94 28.692,147.482 42.43,158.753 41.471,159.954 49.103,166.216 48.143,167.417 40.514,161.154 39.552,162.352 
					25.82,151.077 23.958,153.406 24.645,152.547 38.381,163.821 37.422,165.02 45.054,171.283 44.098,172.48 36.468,166.218 
					35.504,167.417 21.77,156.145 19.639,158.812 41.005,176.35 40.05,177.546 18.68,160.013 15.865,163.536 16.55,162.679 
					30.286,173.951 29.328,175.154 34.487,179.386 38.581,179.386 52.194,162.349 				"/>
				<path fill-rule="evenodd" clip-rule="evenodd" fill="#FFFFFF" d="M28.369,176.353l-0.96,1.2l-12.201-10.018
					c2.916,6.633,9.299,11.364,16.8,11.803L28.369,176.353z"/>
			</g>
			<g>
				<path fill="none" d="M63.917,100.23l29.001-36.296H31.544H23.23H6.232H6.213l0.063,0.075c0.526,0.898,1.187,1.707,1.955,2.396
					l0.083,0.1c3.173,2.741,5.191,6.82,5.191,11.359v81.617c0,1.183,0.104,2.341,0.299,3.469l18.667-23.362L63.917,100.23z"/>
				<path fill="none" d="M55.733,179.386c3.742,0,7.163,1.428,9.766,3.771l0.053,0.021l0.055-0.021
					c2.604-2.343,6.026-3.771,9.768-3.771h22.585c10.817,0,19.642-8.943,19.642-19.905v-75.83l-76.494,95.735H55.733z"/>
				<path fill="none" d="M95.446,63.934L14.39,165.382c2.491,8.097,9.963,14.004,18.755,14.004h5.436l79.02-98.898v-2.584
					c0-0.012,0-0.024,0-0.04c0-3.559,1.241-6.836,3.306-9.403l0.185-0.234l-5.229-4.293H95.446z"/>
				<path fill="#B8A165" d="M127.989,67.483L117.6,58.957H96.974v-4.065H34.128v4.065H0c0,4.534,2.011,8.608,5.177,11.35l0.004,0.02
					l0.004,0.011c2.089,1.828,3.41,4.527,3.41,7.527v81.617c0,13.703,11.031,24.883,24.549,24.883h22.588
					c3.463,0,6.508,1.836,8.257,4.592h3.125c1.75-2.756,4.797-4.592,8.259-4.592h22.585c13.521,0,24.552-11.18,24.552-24.883V77.864
					c0-2.364,0.821-4.544,2.194-6.256l-0.005-0.005L127.989,67.483z M13.505,159.481V77.864c0-4.54-2.019-8.618-5.191-11.359
					l-0.083-0.1c-0.768-0.689-1.429-1.498-1.955-2.396l-0.063-0.075h0.019H23.23h8.313h61.374L63.917,100.23L32.47,139.587
					L13.804,162.95C13.609,161.822,13.505,160.664,13.505,159.481z M117.6,159.481c0,10.962-8.824,19.905-19.642,19.905H75.374
					c-3.741,0-7.163,1.428-9.768,3.771l-0.055,0.021l-0.053-0.021c-2.603-2.343-6.023-3.771-9.766-3.771H41.106L117.6,83.651
					V159.481z M120.906,68.461c-2.064,2.567-3.306,5.845-3.306,9.403c0,0.016,0,0.028,0,0.04v2.584l-79.02,98.898h-5.436
					c-8.792,0-16.264-5.907-18.755-14.004L95.446,63.934h20.416l5.229,4.293L120.906,68.461z"/>
				<path fill="#B8A165" d="M38.805,50.823c0-6.237-0.765-12.297-2.202-18.096c3.013,5.43,4.927,11.569,5.418,18.096
					c6.951,0,13.905,0,20.857,0l2.672-13.552l2.674,13.552c6.953,0,13.905,0,20.856,0c0.496-6.527,2.404-12.666,5.418-18.096
					c-1.436,5.798-2.204,11.859-2.204,18.096c1.559,0,3.121,0,4.679,0c0-19.404,7.383-37.114,19.446-50.4
					C115.106,0.148,113.749,0,112.356,0c-10.6,0-19.322,8.407-20.014,18.979c-0.016,0-0.033-0.001-0.047-0.001
					c-3.324,0-6.276,1.651-8.103,4.187c1.576,2.715,2.481,5.873,2.481,9.239c0,2.756-0.606,5.372-1.692,7.72v0.014H84.98
					c-1.063,2.308-3.385,3.913-6.057,3.913c-3.68,0-6.684-3.044-6.684-6.777c0-3.731,3.004-6.777,6.684-6.777
					c0.475,0,0.933,0.051,1.378,0.146c0.403-1.103,0.63-2.294,0.63-3.534c0-4.236-2.581-7.879-6.23-9.403
					c0.568-1.27,0.88-2.674,0.88-4.147c0-5.601-4.504-10.167-10.029-10.167c-5.521,0-10.026,4.566-10.026,10.167
					c0,1.474,0.313,2.878,0.874,4.147c-3.645,1.523-6.226,5.167-6.226,9.403c0,1.24,0.221,2.432,0.628,3.534
					c0.446-0.096,0.905-0.146,1.38-0.146c3.682,0,6.687,3.046,6.687,6.777c0,3.733-3.005,6.777-6.687,6.777
					c-2.674,0-4.991-1.604-6.061-3.913h-0.002v-0.014c-1.08-2.348-1.691-4.964-1.691-7.72c0-3.366,0.906-6.524,2.482-9.239
					c-1.827-2.535-4.78-4.187-8.105-4.187c-0.012,0-0.029,0.001-0.044,0.001C38.069,8.407,29.349,0,18.75,0
					c-1.392,0-2.751,0.148-4.068,0.423c12.064,13.287,19.446,30.997,19.446,50.4C35.688,50.823,37.246,50.823,38.805,50.823z"/>
			</g>
			<g>
				<polygon fill-rule="evenodd" clip-rule="evenodd" fill="#289448" points="31.673,89.562 38.735,89.562 35.102,80.255 				"/>
				<path fill-rule="evenodd" clip-rule="evenodd" fill="#289448" d="M31.544,63.934H23.23H6.232H6.213l0.063,0.075
					c0.526,0.898,1.187,1.707,1.955,2.396l0.083,0.1c3.173,2.741,5.191,6.82,5.191,11.359v81.617c0,1.183,0.104,2.341,0.299,3.469
					l18.667-23.362l31.446-39.357l29.001-36.296H31.544z M53.755,103.745H40.404v-0.199c1.368-0.545,2.217-1.714,2.267-3.21
					c-0.005-0.471-0.081-0.875-0.241-1.316l-1.846-4.731H29.926l-2.132,5.788c-0.237,0.698-0.13,1.325,0.28,1.926
					c0.522,0.667,1.084,1.143,1.829,1.544v0.199H19.397v-0.199c1.397-1.375,2.417-2.94,3.117-4.777l8.118-22.015
					c0.537-1.552,0.188-3.146-0.962-4.312c-0.223-0.206-0.445-0.38-0.7-0.547h10.893l10.491,26.874
					c0.601,1.484,1.408,2.753,2.498,3.922c0.293,0.299,0.59,0.578,0.904,0.855V103.745z"/>
			</g>
			<g>
				<path fill-rule="evenodd" clip-rule="evenodd" fill="#C10E1A" d="M99.091,145.286c-1.871-0.438-3.714-0.677-5.628-0.729
					l-0.517-0.005v11.147c0.865-0.012,1.719-0.051,2.579-0.126c1.211-0.134,2.38-0.331,3.565-0.607
					c1.617-0.425,2.803-1.481,3.439-3.048c0.6-1.661,0.366-3.354-0.657-4.786C101.144,146.183,100.239,145.586,99.091,145.286z"/>
				<path fill-rule="evenodd" clip-rule="evenodd" fill="#C10E1A" d="M41.106,179.386h14.627c3.742,0,7.163,1.428,9.766,3.771
					l0.053,0.021l0.055-0.021c2.604-2.343,6.026-3.771,9.768-3.771h22.585c10.817,0,19.642-8.943,19.642-19.905v-75.83
					L41.106,179.386z M110.669,150.999c-0.137,1.256-0.479,2.365-1.072,3.479c-1.194,2.106-2.995,3.567-5.3,4.261
					c-0.293,0.079-0.581,0.148-0.878,0.205c-2.408,0.417-4.798,0.696-7.234,0.846c-1.083,0.052-2.158,0.082-3.238,0.088v7.851
					c0.042,1.727,0.789,3.163,2.197,4.147c0.196,0.128,0.391,0.237,0.6,0.343v0.2H82.247v-0.2c1.429-0.928,2.235-2.3,2.349-4.018
					l0.005-0.231V144.82c-0.034-1.471-0.563-2.686-1.623-3.697c-0.236-0.207-0.467-0.381-0.73-0.553h10.7l0.921,0.008
					c3.081,0.05,6.114,0.272,9.17,0.666l0.298,0.048c1.337,0.248,2.478,0.722,3.602,1.491c1.188,0.863,2.068,1.883,2.767,3.182
					C110.506,147.569,110.82,149.208,110.669,150.999z"/>
			</g>
			<path fill-rule="evenodd" clip-rule="evenodd" fill="#FFFFFF" d="M38.735,89.562l-3.633-9.307l-3.429,9.307H38.735L38.735,89.562
				z M39.863,71.895l10.491,26.874c0.601,1.484,1.408,2.753,2.498,3.922c0.293,0.299,0.59,0.578,0.904,0.855v0.199H40.404v-0.199
				c1.368-0.545,2.217-1.714,2.267-3.21c-0.005-0.471-0.081-0.875-0.241-1.316l-1.846-4.731H29.926l-2.132,5.788
				c-0.237,0.698-0.13,1.325,0.28,1.926c0.522,0.667,1.084,1.143,1.829,1.544v0.199H19.397v-0.199
				c1.397-1.375,2.417-2.94,3.117-4.777l8.118-22.015c0.537-1.552,0.188-3.146-0.962-4.312c-0.223-0.206-0.445-0.38-0.7-0.547
				H39.863L39.863,71.895z"/>
			<path fill-rule="evenodd" clip-rule="evenodd" fill="#FFFFFF" d="M92.947,155.699v-11.147l0.517,0.005
				c1.914,0.053,3.757,0.291,5.628,0.729c1.147,0.301,2.053,0.897,2.782,1.846c1.023,1.433,1.257,3.125,0.657,4.786
				c-0.637,1.566-1.822,2.623-3.439,3.048c-1.186,0.276-2.354,0.474-3.565,0.607C94.666,155.648,93.812,155.687,92.947,155.699
				L92.947,155.699L92.947,155.699z M92.947,140.57h-10.7c0.264,0.172,0.494,0.346,0.73,0.553c1.06,1.012,1.589,2.227,1.623,3.697
				v23.149l-0.005,0.231c-0.113,1.718-0.92,3.09-2.349,4.018v0.2h13.497v-0.2c-0.209-0.105-0.403-0.215-0.6-0.343
				c-1.408-0.984-2.155-2.421-2.197-4.147v-7.851c1.08-0.006,2.155-0.036,3.238-0.088c2.437-0.149,4.826-0.429,7.234-0.846
				c0.297-0.057,0.585-0.126,0.878-0.205c2.305-0.693,4.105-2.154,5.3-4.261c0.593-1.114,0.936-2.224,1.072-3.479
				c0.15-1.79-0.163-3.43-0.966-5.034c-0.698-1.299-1.578-2.318-2.767-3.182c-1.124-0.77-2.265-1.243-3.602-1.491l-0.298-0.048
				c-3.056-0.394-6.089-0.616-9.17-0.666L92.947,140.57L92.947,140.57z"/>
			<g>
				<polygon points="99.099,87.825 85.364,76.551 82.491,80.146 96.228,91.422 97.184,90.223 104.816,96.487 105.773,95.288 
					98.143,89.023 				"/>
				<polygon points="18.68,160.013 40.05,177.546 41.005,176.35 19.639,158.812 				"/>
				<polygon points="34.873,139.746 56.24,157.284 57.199,156.084 35.83,138.547 				"/>
				<polygon points="47.014,124.547 68.382,142.085 69.344,140.886 47.972,123.347 				"/>
				<polygon points="63.207,104.282 84.577,121.82 85.534,120.62 64.167,103.082 				"/>
				<polygon points="75.352,89.082 96.719,106.619 97.678,105.422 76.308,87.882 				"/>
				<polygon points="91.542,68.816 112.91,86.355 113.872,85.155 92.501,67.617 				"/>
				<polygon points="103.147,82.759 89.413,71.484 86.537,75.081 100.275,86.356 101.231,85.159 108.864,91.42 109.819,90.221 
					102.191,83.959 				"/>
				<polygon points="95.053,92.892 81.316,81.617 78.444,85.216 92.178,96.488 93.138,95.29 100.767,101.551 101.726,100.355 
					94.093,94.091 				"/>
				<polygon points="86.956,103.025 73.218,91.749 70.347,95.347 84.083,106.622 85.039,105.424 92.671,111.687 93.629,110.486 
					85.996,104.225 				"/>
				<polygon points="82.907,108.09 69.171,96.818 66.296,100.412 80.034,111.689 80.994,110.49 88.624,116.751 89.582,115.555 
					81.95,109.291 				"/>
				<polygon points="74.813,118.224 61.076,106.949 58.203,110.546 71.938,121.82 72.897,120.623 80.529,126.884 81.486,125.687 
					73.853,119.423 				"/>
				<polygon points="70.763,123.291 57.029,112.015 54.15,115.612 67.89,126.888 68.849,125.688 76.48,131.953 77.437,130.755 
					69.806,124.491 				"/>
				<polygon points="66.716,128.355 52.979,117.083 50.106,120.681 63.841,131.953 64.8,130.755 72.43,137.019 73.391,135.818 
					65.759,129.555 				"/>
				<polygon points="58.621,138.49 44.885,127.212 42.01,130.812 55.748,142.085 56.704,140.886 64.335,147.15 65.292,145.95 
					57.664,139.689 				"/>
				<polygon points="54.574,143.554 40.834,132.283 37.961,135.878 51.702,147.153 52.656,145.954 60.289,152.216 61.246,151.017 
					53.616,144.753 				"/>
				<polygon points="46.478,153.69 32.738,142.414 29.864,146.009 43.603,157.284 44.56,156.084 52.194,162.349 53.151,161.152 
					45.519,154.888 				"/>
				<polygon points="42.43,158.753 28.692,147.482 25.819,151.077 39.552,162.352 40.514,161.154 48.143,167.417 49.103,166.216 
					41.471,159.954 				"/>
				<polygon points="38.381,163.821 24.645,152.547 21.769,156.144 35.504,167.417 36.468,166.218 44.098,172.48 45.054,171.283 
					37.422,165.02 				"/>
				<path d="M30.286,173.951L16.55,162.679l-2.163,2.703c0.225,0.728,0.49,1.438,0.79,2.129l12.23,10.042l0.96-1.2l3.656,3
					c0.373,0.021,0.747,0.033,1.12,0.033h1.342l-5.159-4.232L30.286,173.951z"/>
				<path d="M114.333,68.759l0.957-1.199l-4.42-3.627h-7.257l8.806,7.226l0.956-1.2l4.759,3.908
					c0.148-0.531,0.323-1.051,0.522-1.556L114.333,68.759z"/>
				<polygon points="111.245,72.625 100.652,63.934 95.446,63.934 94.632,64.951 108.369,76.225 109.328,75.025 116.959,81.289 
					117.6,80.488 117.6,79.827 110.285,73.826 				"/>
			</g>
		</g>
	</g>
</g>
</svg>
